OstrichSans-Light.ufo
<glyph name="percent" format="1">
  <advance width="451"/>
  <unicode hex="0025"/>
  <outline>
    <contour>
      <point x="342" y="287" type="line"/>
      <point x="387" y="286"/>
      <point x="408" y="248"/>
      <point x="408" y="209" type="curve" smooth="yes"/>
      <point x="408" y="123" type="line" smooth="yes"/>
      <point x="408" y="84"/>
      <point x="387" y="46"/>
      <point x="342" y="45" type="curve" smooth="yes"/>
      <point x="339" y="45" type="line"/>
      <point x="337" y="45" type="line" smooth="yes"/>
      <point x="290" y="46"/>
      <point x="271" y="84"/>
      <point x="271" y="123" type="curve" smooth="yes"/>
      <point x="271" y="207" type="line"/>
      <point x="271" y="209" type="line"/>
      <point x="271" y="212" type="line" smooth="yes"/>
      <point x="272" y="249"/>
      <point x="292" y="286"/>
      <point x="337" y="287" type="curve"/>
      <point x="337" y="288" type="line"/>
      <point x="339" y="288" type="line"/>
      <point x="342" y="288" type="line"/>
    </contour>
    <contour>
      <point x="403" y="209" type="line" smooth="yes"/>
      <point x="403" y="246"/>
      <point x="383" y="283"/>
      <point x="339" y="283" type="curve" smooth="yes"/>
      <point x="295" y="283"/>
      <point x="276" y="246"/>
      <point x="276" y="209" type="curve" smooth="yes"/>
      <point x="276" y="207" type="line"/>
      <point x="276" y="123" type="line" smooth="yes"/>
      <point x="276" y="87"/>
      <point x="295" y="50"/>
      <point x="339" y="50" type="curve" smooth="yes"/>
      <point x="383" y="50"/>
      <point x="403" y="87"/>
      <point x="403" y="123" type="curve" smooth="yes"/>
    </contour>
    <contour>
      <point x="95" y="358" type="line"/>
      <point x="92" y="358" type="line"/>
      <point x="47" y="361"/>
      <point x="26" y="398"/>
      <point x="26" y="437" type="curve" smooth="yes"/>
      <point x="26" y="520" type="line"/>
      <point x="26" y="523" type="line"/>
      <point x="26" y="525" type="line" smooth="yes"/>
      <point x="27" y="564"/>
      <point x="48" y="600"/>
      <point x="92" y="601" type="curve" smooth="yes"/>
      <point x="95" y="601" type="line"/>
      <point x="97" y="601" type="line" smooth="yes"/>
      <point x="144" y="600"/>
      <point x="163" y="562"/>
      <point x="163" y="523" type="curve" smooth="yes"/>
      <point x="163" y="437" type="line" smooth="yes"/>
      <point x="163" y="398"/>
      <point x="144" y="361"/>
      <point x="97" y="358" type="curve"/>
    </contour>
    <contour>
      <point x="31" y="437" type="line" smooth="yes"/>
      <point x="31" y="400"/>
      <point x="51" y="363"/>
      <point x="95" y="363" type="curve" smooth="yes"/>
      <point x="139" y="363"/>
      <point x="159" y="400"/>
      <point x="159" y="437" type="curve" smooth="yes"/>
      <point x="159" y="523" type="line" smooth="yes"/>
      <point x="159" y="559"/>
      <point x="139" y="596"/>
      <point x="95" y="596" type="curve" smooth="yes"/>
      <point x="51" y="596"/>
      <point x="31" y="559"/>
      <point x="31" y="523" type="curve" smooth="yes"/>
      <point x="31" y="520" type="line"/>
    </contour>
    <contour>
      <point x="340" y="648" type="line"/>
      <point x="102" y="0" type="line"/>
      <point x="97" y="0" type="line"/>
      <point x="335" y="648" type="line"/>
    </contour>
  </outline>
</glyph>
<glyph name="parenright" format="1">
  <advance width="101"/>
  <unicode hex="0029"/>
  <outline>
    <contour>
      <point x="4" y="4" type="line"/>
      <point x="6" y="5" type="line"/>
      <point x="15" y="12"/>
      <point x="24" y="21"/>
      <point x="34" y="37" type="curve"/>
      <point x="39" y="44"/>
      <point x="44" y="54"/>
      <point x="49" y="65" type="curve" smooth="yes"/>
      <point x="69" y="108"/>
      <point x="93" y="186"/>
      <point x="93" y="323" type="curve" smooth="yes"/>
      <point x="93" y="459"/>
      <point x="69" y="539"/>
      <point x="49" y="583" type="curve" smooth="yes"/>
      <point x="38" y="606"/>
      <point x="28" y="620"/>
      <point x="20" y="631" type="curve"/>
      <point x="15" y="636"/>
      <point x="11" y="641"/>
      <point x="6" y="644" type="curve"/>
      <point x="4" y="645" type="line"/>
      <point x="6" y="649" type="line"/>
      <point x="8" y="648" type="line"/>
      <point x="9" y="647"/>
      <point x="14" y="643"/>
      <point x="23" y="634" type="curve" smooth="yes"/>
      <point x="32" y="625"/>
      <point x="42" y="609"/>
      <point x="53" y="585" type="curve" smooth="yes"/>
      <point x="74" y="541"/>
      <point x="98" y="460"/>
      <point x="98" y="323" type="curve" smooth="yes"/>
      <point x="98" y="254"/>
      <point x="92" y="200"/>
      <point x="84" y="157" type="curve" smooth="yes"/>
      <point x="75" y="114"/>
      <point x="64" y="83"/>
      <point x="53" y="62" type="curve"/>
      <point x="42" y="39"/>
      <point x="32" y="23"/>
      <point x="23" y="15" type="curve"/>
      <point x="14" y="6"/>
      <point x="9" y="2"/>
      <point x="8" y="1" type="curve"/>
      <point x="6" y="0" type="line"/>
    </contour>
  </outline>
</glyph>
<glyph name="period" format="1">
  <advance width="61"/>
  <unicode hex="002E"/>
  <outline>
    <contour>
      <point x="8" y="0" type="line"/>
      <point x="8" y="16" type="line"/>
      <point x="13" y="16" type="line"/>
      <point x="13" y="0" type="line"/>
      <point x="13" y="0" type="line"/>
    </contour>
  </outline>
</glyph>
<glyph name="slash" format="1">
  <advance width="299"/>
  <unicode hex="002F"/>
  <outline>
    <contour>
      <point x="6" y="0" type="line"/>
      <point x="244" y="647" type="line"/>
      <point x="249" y="647" type="line"/>
      <point x="11" y="0" type="line"/>
    </contour>
  </outline>
</glyph>
<glyph name="zero" format="1">
  <advance width="308"/>
  <unicode hex="0030"/>
  <outline>
    <contour>
      <point x="217" y="575"/>
      <point x="226" y="534"/>
      <point x="226" y="481" type="curve" smooth="yes"/>
      <point x="226" y="168" type="line" smooth="yes"/>
      <point x="226" y="57"/>
      <point x="187" y="0"/>
      <point x="114" y="0" type="curve" smooth="yes"/>
      <point x="41" y="0"/>
      <point x="3" y="57"/>
      <point x="3" y="168" type="curve" smooth="yes"/>
      <point x="3" y="481" type="line" smooth="yes"/>
      <point x="3" y="592"/>
      <point x="40" y="647"/>
      <point x="114" y="647" type="curve" smooth="yes"/>
      <point x="151" y="647"/>
      <point x="179" y="633"/>
      <point x="198" y="604" type="curve" smooth="yes"/>
    </contour>
    <contour>
      <point x="221" y="481" type="line" smooth="yes"/>
      <point x="221" y="588"/>
      <point x="185" y="643"/>
      <point x="114" y="643" type="curve" smooth="yes"/>
      <point x="45" y="643"/>
      <point x="8" y="588"/>
      <point x="8" y="481" type="curve" smooth="yes"/>
      <point x="8" y="168" type="line" smooth="yes"/>
      <point x="8" y="59"/>
      <point x="45" y="5"/>
      <point x="114" y="5" type="curve" smooth="yes"/>
      <point x="185" y="5"/>
      <point x="221" y="59"/>
      <point x="221" y="168" type="curve" smooth="yes"/>
    </contour>
  </outline>
</glyph>
<glyph name="one" format="1">
  <advance width="178"/>
  <unicode hex="0031"/>
  <outline>
    <contour>
      <point x="103" y="647" type="line"/>
      <point x="103" y="0" type="line"/>
      <point x="98" y="0" type="line"/>
      <point x="98" y="639" type="line"/>
      <point x="6" y="527" type="line"/>
      <point x="2" y="530" type="line"/>
      <point x="100" y="647" type="line"/>
    </contour>
  </outline>
</glyph>
<glyph name="three" format="1">
  <advance width="275"/>
  <unicode hex="0033"/>
  <outline>
    <contour>
      <point x="224" y="420"/>
      <point x="199" y="383"/>
      <point x="178" y="362" type="curve" smooth="yes"/>
      <point x="159" y="342"/>
      <point x="134" y="328"/>
      <point x="110" y="323" type="curve"/>
      <point x="134" y="318"/>
      <point x="159" y="304"/>
      <point x="178" y="284" type="curve" smooth="yes"/>
      <point x="199" y="263"/>
      <point x="224" y="227"/>
      <point x="227" y="167" type="curve"/>
      <point x="227" y="160" type="line"/>
      <point x="227" y="153" type="line"/>
      <point x="224" y="113"/>
      <point x="216" y="76"/>
      <point x="199" y="49" type="curve" smooth="yes"/>
      <point x="178" y="16"/>
      <point x="151" y="0"/>
      <point x="116" y="0" type="curve" smooth="yes"/>
      <point x="41" y="0"/>
      <point x="4" y="60"/>
      <point x="4" y="165" type="curve" smooth="yes"/>
      <point x="4" y="167" type="line"/>
      <point x="9" y="167" type="line"/>
      <point x="9" y="165" type="line" smooth="yes"/>
      <point x="9" y="58"/>
      <point x="45" y="5"/>
      <point x="116" y="5" type="curve" smooth="yes"/>
      <point x="149" y="5"/>
      <point x="176" y="21"/>
      <point x="195" y="52" type="curve" smooth="yes"/>
      <point x="212" y="79"/>
      <point x="222" y="117"/>
      <point x="222" y="160" type="curve"/>
      <point x="221" y="221"/>
      <point x="196" y="258"/>
      <point x="175" y="281" type="curve"/>
      <point x="150" y="305"/>
      <point x="118" y="321"/>
      <point x="89" y="321" type="curve" smooth="yes"/>
      <point x="87" y="321" type="line"/>
      <point x="43" y="321" type="line"/>
      <point x="43" y="325" type="line"/>
      <point x="89" y="325" type="line" smooth="yes"/>
      <point x="112" y="325"/>
      <point x="145" y="337"/>
      <point x="172" y="363" type="curve" smooth="yes"/>
      <point x="199" y="389"/>
      <point x="221" y="429"/>
      <point x="222" y="486" type="curve" smooth="yes"/>
      <point x="222" y="573"/>
      <point x="183" y="643"/>
      <point x="116" y="643" type="curve" smooth="yes"/>
      <point x="45" y="643"/>
      <point x="9" y="588"/>
      <point x="9" y="481" type="curve" smooth="yes"/>
      <point x="9" y="479" type="line"/>
      <point x="4" y="479" type="line"/>
      <point x="4" y="481" type="line" smooth="yes"/>
      <point x="4" y="592"/>
      <point x="41" y="647"/>
      <point x="116" y="647" type="curve" smooth="yes"/>
      <point x="151" y="647"/>
      <point x="179" y="630"/>
      <point x="199" y="597" type="curve" smooth="yes"/>
      <point x="216" y="570"/>
      <point x="224" y="534"/>
      <point x="227" y="493" type="curve"/>
      <point x="227" y="486" type="line"/>
      <point x="227" y="479" type="line"/>
    </contour>
  </outline>
</glyph>
<glyph name="four" format="1">
  <advance width="312"/>
  <unicode hex="0034"/>
  <outline>
    <contour>
      <point x="245" y="647" type="line"/>
      <point x="249" y="647" type="line"/>
      <point x="249" y="0" type="line"/>
      <point x="244" y="0" type="line"/>
      <point x="244" y="206" type="line"/>
      <point x="4" y="206" type="line"/>
      <point x="4" y="211" type="line"/>
    </contour>
    <contour>
      <point x="244" y="210" type="line"/>
      <point x="244" y="636" type="line"/>
      <point x="9" y="210" type="line"/>
    </contour>
  </outline>
</glyph>
<glyph name="six" format="1">
  <advance width="279"/>
  <unicode hex="0036"/>
  <outline>
    <contour>
      <point x="5" y="239" type="line"/>
      <point x="5" y="240" type="line"/>
      <point x="5" y="441" type="line" smooth="yes"/>
      <point x="5" y="576"/>
      <point x="42" y="646"/>
      <point x="114" y="647" type="curve" smooth="yes"/>
      <point x="116" y="647" type="line"/>
      <point x="119" y="647" type="line" smooth="yes"/>
      <point x="188" y="647"/>
      <point x="228" y="590"/>
      <point x="228" y="498" type="curve" smooth="yes"/>
      <point x="228" y="496" type="line"/>
      <point x="223" y="496" type="line"/>
      <point x="223" y="498" type="line" smooth="yes"/>
      <point x="223" y="591"/>
      <point x="185" y="643"/>
      <point x="116" y="643" type="curve" smooth="yes"/>
      <point x="47" y="643"/>
      <point x="10" y="574"/>
      <point x="10" y="441" type="curve" smooth="yes"/>
      <point x="10" y="292" type="line"/>
      <point x="23" y="361"/>
      <point x="61" y="403"/>
      <point x="116" y="403" type="curve" smooth="yes"/>
      <point x="191" y="403"/>
      <point x="228" y="348"/>
      <point x="228" y="239" type="curve" smooth="yes"/>
      <point x="228" y="165" type="line" smooth="yes"/>
      <point x="228" y="65"/>
      <point x="184" y="0"/>
      <point x="116" y="0" type="curve" smooth="yes"/>
      <point x="44" y="0"/>
      <point x="5" y="53"/>
      <point x="5" y="142" type="curve" smooth="yes"/>
    </contour>
    <contour>
      <point x="10" y="142" type="line" smooth="yes"/>
      <point x="10" y="55"/>
      <point x="47" y="5"/>
      <point x="116" y="5" type="curve" smooth="yes"/>
      <point x="181" y="5"/>
      <point x="223" y="66"/>
      <point x="223" y="165" type="curve" smooth="yes"/>
      <point x="223" y="239" type="line" smooth="yes"/>
      <point x="223" y="347"/>
      <point x="185" y="399"/>
      <point x="116" y="399" type="curve" smooth="yes"/>
      <point x="52" y="399"/>
      <point x="10" y="336"/>
      <point x="10" y="240" type="curve" smooth="yes"/>
    </contour>
  </outline>
</glyph>
<glyph name="eight" format="1">
  <advance width="303"/>
  <unicode hex="0038"/>
  <outline>
    <contour>
      <point x="248" y="490" type="line"/>
      <point x="248" y="485" type="line"/>
      <point x="248" y="479" type="line"/>
      <point x="248" y="477" type="line"/>
      <point x="244" y="376"/>
      <point x="211" y="335"/>
      <point x="154" y="324" type="curve"/>
      <point x="210" y="313"/>
      <point x="244" y="270"/>
      <point x="248" y="171" type="curve"/>
      <point x="248" y="168" type="line"/>
      <point x="248" y="163" type="line"/>
      <point x="248" y="157" type="line"/>
      <point x="248" y="155" type="line"/>
      <point x="244" y="54"/>
      <point x="209" y="0"/>
      <point x="128" y="0" type="curve" smooth="yes"/>
      <point x="126" y="0" type="line"/>
      <point x="124" y="0" type="line" smooth="yes"/>
      <point x="43" y="0"/>
      <point x="8" y="54"/>
      <point x="4" y="155" type="curve"/>
      <point x="4" y="157" type="line"/>
      <point x="4" y="163" type="line"/>
      <point x="4" y="168" type="line"/>
      <point x="4" y="171" type="line"/>
      <point x="8" y="270"/>
      <point x="42" y="313"/>
      <point x="98" y="324" type="curve"/>
      <point x="41" y="335"/>
      <point x="8" y="376"/>
      <point x="4" y="477" type="curve"/>
      <point x="4" y="479" type="line"/>
      <point x="4" y="485" type="line"/>
      <point x="4" y="490" type="line"/>
      <point x="4" y="492" type="line"/>
      <point x="8" y="592"/>
      <point x="43" y="647"/>
      <point x="124" y="647" type="curve" smooth="yes"/>
      <point x="126" y="647" type="line"/>
      <point x="128" y="647" type="line" smooth="yes"/>
      <point x="209" y="647"/>
      <point x="244" y="592"/>
      <point x="248" y="492" type="curve"/>
    </contour>
    <contour>
      <point x="242" y="271"/>
      <point x="206" y="322"/>
      <point x="126" y="322" type="curve" smooth="yes"/>
      <point x="46" y="322"/>
      <point x="10" y="271"/>
      <point x="9" y="163" type="curve" smooth="yes"/>
      <point x="10" y="55"/>
      <point x="46" y="5"/>
      <point x="126" y="5" type="curve" smooth="yes"/>
      <point x="206" y="5"/>
      <point x="242" y="55"/>
      <point x="243" y="163" type="curve"/>
    </contour>
    <contour>
      <point x="206" y="326"/>
      <point x="242" y="377"/>
      <point x="243" y="485" type="curve"/>
      <point x="242" y="590"/>
      <point x="203" y="643"/>
      <point x="126" y="643" type="curve" smooth="yes"/>
      <point x="49" y="643"/>
      <point x="10" y="590"/>
      <point x="9" y="485" type="curve" smooth="yes"/>
      <point x="10" y="377"/>
      <point x="46" y="326"/>
      <point x="126" y="326" type="curve" smooth="yes"/>
    </contour>
  </outline>
</glyph>
<glyph name="colon" format="1">
  <advance width="833"/>
  <unicode hex="003A"/>
  <outline>
    <contour>
      <point x="8" y="488" type="line"/>
      <point x="13" y="488" type="line"/>
      <point x="13" y="438" type="line"/>
      <point x="8" y="438" type="line"/>
    </contour>
    <contour>
      <point x="8" y="163" type="line"/>
      <point x="8" y="212" type="line"/>
      <point x="13" y="212" type="line"/>
      <point x="13" y="163" type="line"/>
    </contour>
  </outline>
</glyph>
<glyph name="semicolon" format="1">
  <advance width="69"/>
  <unicode hex="003B"/>
  <outline>
    <contour>
      <point x="6" y="488" type="line"/>
      <point x="11" y="488" type="line"/>
      <point x="11" y="438" type="line"/>
      <point x="6" y="438" type="line"/>
    </contour>
    <contour>
      <point x="6" y="127" type="line"/>
      <point x="6" y="212" type="line"/>
      <point x="11" y="212" type="line"/>
      <point x="11" y="127" type="line"/>
    </contour>
  </outline>
</glyph>
<glyph name="equal" format="1">
  <advance width="283"/>
  <unicode hex="003D"/>
  <outline>
    <contour>
      <point x="228" y="411" type="line"/>
      <point x="10" y="411" type="line"/>
      <point x="10" y="416" type="line"/>
      <point x="228" y="416" type="line"/>
    </contour>
    <contour>
      <point x="228" y="211" type="line"/>
      <point x="10" y="211" type="line"/>
      <point x="10" y="216" type="line"/>
      <point x="228" y="216" type="line"/>
    </contour>
  </outline>
</glyph>
<glyph name="F" format="1">
  <advance width="255"/>
  <unicode hex="0046"/>
  <outline>
    <contour>
      <point x="10" y="643" type="line"/>
      <point x="10" y="326" type="line"/>
      <point x="221" y="326" type="line"/>
      <point x="221" y="322" type="line"/>
      <point x="10" y="322" type="line"/>
      <point x="10" y="0" type="line"/>
      <point x="6" y="0" type="line"/>
      <point x="6" y="322" type="line"/>
      <point x="6" y="326" type="line"/>
      <point x="6" y="647" type="line"/>
      <point x="221" y="647" type="line"/>
      <point x="221" y="643" type="line"/>
    </contour>
  </outline>
</glyph>
<glyph name="J" format="1">
  <advance width="308"/>
  <unicode hex="004A"/>
  <outline>
    <contour>
      <point x="247" y="647" type="line"/>
      <point x="247" y="151" type="line" smooth="yes"/>
      <point x="247" y="51"/>
      <point x="207" y="0"/>
      <point x="126" y="0" type="curve" smooth="yes"/>
      <point x="46" y="0"/>
      <point x="6" y="51"/>
      <point x="6" y="151" type="curve" smooth="yes"/>
      <point x="6" y="154" type="line"/>
      <point x="11" y="154" type="line"/>
      <point x="11" y="151" type="line" smooth="yes"/>
      <point x="11" y="102"/>
      <point x="21" y="65"/>
      <point x="40" y="40" type="curve"/>
      <point x="60" y="16"/>
      <point x="89" y="4"/>
      <point x="126" y="4" type="curve" smooth="yes"/>
      <point x="164" y="4"/>
      <point x="193" y="16"/>
      <point x="213" y="40" type="curve"/>
      <point x="232" y="65"/>
      <point x="242" y="102"/>
      <point x="242" y="151" type="curve" smooth="yes"/>
      <point x="242" y="647" type="line"/>
    </contour>
  </outline>
</glyph>
<glyph name="Q" format="1">
  <advance width="340"/>
  <unicode hex="0051"/>
  <outline>
    <contour>
      <point x="268" y="-26" type="line"/>
      <point x="221" y="30" type="line"/>
      <point x="200" y="10"/>
      <point x="171" y="0"/>
      <point x="136" y="0" type="curve" smooth="yes"/>
      <point x="49" y="0"/>
      <point x="6" y="56"/>
      <point x="6" y="169" type="curve" smooth="yes"/>
      <point x="6" y="485" type="line" smooth="yes"/>
      <point x="6" y="540"/>
      <point x="17" y="581"/>
      <point x="39" y="607" type="curve"/>
      <point x="60" y="634"/>
      <point x="92" y="647"/>
      <point x="136" y="647" type="curve" smooth="yes"/>
      <point x="180" y="647"/>
      <point x="212" y="634"/>
      <point x="233" y="607" type="curve"/>
      <point x="255" y="581"/>
      <point x="266" y="540"/>
      <point x="266" y="485" type="curve" smooth="yes"/>
      <point x="266" y="169" type="line" smooth="yes"/>
      <point x="266" y="108"/>
      <point x="252" y="63"/>
      <point x="225" y="34" type="curve"/>
      <point x="274" y="-26" type="line"/>
    </contour>
    <contour>
      <point x="170" y="4"/>
      <point x="198" y="14"/>
      <point x="219" y="34" type="curve"/>
      <point x="174" y="88" type="line"/>
      <point x="180" y="88" type="line"/>
      <point x="222" y="37" type="line"/>
      <point x="223" y="38"/>
      <point x="225" y="40"/>
      <point x="226" y="42" type="curve"/>
      <point x="227" y="43"/>
      <point x="228" y="45"/>
      <point x="229" y="46" type="curve"/>
      <point x="250" y="75"/>
      <point x="261" y="116"/>
      <point x="261" y="169" type="curve" smooth="yes"/>
      <point x="261" y="485" type="line" smooth="yes"/>
      <point x="261" y="590"/>
      <point x="219" y="643"/>
      <point x="136" y="643" type="curve" smooth="yes"/>
      <point x="53" y="643"/>
      <point x="11" y="590"/>
      <point x="11" y="485" type="curve" smooth="yes"/>
      <point x="11" y="169" type="line" smooth="yes"/>
      <point x="11" y="60"/>
      <point x="52" y="4"/>
      <point x="136" y="4" type="curve" smooth="yes"/>
    </contour>
  </outline>
</glyph>
<glyph name="S" format="1">
  <advance width="320"/>
  <unicode hex="0053"/>
  <outline>
    <contour>
      <point x="266" y="164" type="line"/>
      <point x="266" y="161" type="line" smooth="yes"/>
      <point x="266" y="160"/>
      <point x="266" y="160"/>
      <point x="267" y="160" type="curve"/>
      <point x="267" y="159"/>
      <point x="267" y="159"/>
      <point x="267" y="158" type="curve"/>
      <point x="266" y="157"/>
      <point x="266" y="157"/>
      <point x="266" y="156" type="curve" smooth="yes"/>
      <point x="266" y="153" type="line"/>
      <point x="263" y="68"/>
      <point x="220" y="0"/>
      <point x="136" y="0" type="curve" smooth="yes"/>
      <point x="48" y="0"/>
      <point x="5" y="53"/>
      <point x="5" y="164" type="curve" smooth="yes"/>
      <point x="5" y="167" type="line"/>
      <point x="9" y="167" type="line"/>
      <point x="9" y="164" type="line" smooth="yes"/>
      <point x="9" y="57"/>
      <point x="52" y="4"/>
      <point x="136" y="4" type="curve" smooth="yes"/>
      <point x="212" y="4"/>
      <point x="259" y="64"/>
      <point x="262" y="159" type="curve"/>
      <point x="261" y="211"/>
      <point x="240" y="246"/>
      <point x="214" y="270" type="curve" smooth="yes"/>
      <point x="188" y="294"/>
      <point x="158" y="306"/>
      <point x="142" y="313" type="curve" smooth="yes"/>
      <point x="127" y="320" type="line"/>
      <point x="107" y="328"/>
      <point x="77" y="341"/>
      <point x="52" y="366" type="curve" smooth="yes"/>
      <point x="21" y="395"/>
      <point x="5" y="433"/>
      <point x="5" y="479" type="curve" smooth="yes"/>
      <point x="5" y="482" type="line"/>
      <point x="5" y="484" type="line" smooth="yes"/>
      <point x="6" y="584"/>
      <point x="56" y="647"/>
      <point x="136" y="647" type="curve" smooth="yes"/>
      <point x="223" y="647"/>
      <point x="267" y="592"/>
      <point x="267" y="482" type="curve" smooth="yes"/>
      <point x="267" y="479" type="line"/>
      <point x="262" y="479" type="line"/>
      <point x="262" y="482" type="line" smooth="yes"/>
      <point x="262" y="589"/>
      <point x="219" y="643"/>
      <point x="136" y="643" type="curve" smooth="yes"/>
      <point x="59" y="643"/>
      <point x="9" y="579"/>
      <point x="9" y="482" type="curve" smooth="yes"/>
      <point x="9" y="429"/>
      <point x="30" y="394"/>
      <point x="55" y="370" type="curve" smooth="yes"/>
      <point x="79" y="346"/>
      <point x="109" y="332"/>
      <point x="129" y="324" type="curve" smooth="yes"/>
      <point x="143" y="318" type="line" smooth="yes"/>
      <point x="159" y="311"/>
      <point x="189" y="299"/>
      <point x="215" y="276" type="curve" smooth="yes"/>
      <point x="241" y="252"/>
      <point x="263" y="218"/>
      <point x="266" y="167" type="curve"/>
    </contour>
  </outline>
</glyph>
<glyph name="U" format="1">
  <advance width="336"/>
  <unicode hex="0055"/>
  <outline>
    <contour>
      <point x="245" y="647" type="line"/>
      <point x="245" y="152" type="line" smooth="yes"/>
      <point x="245" y="51"/>
      <point x="206" y="1"/>
      <point x="127" y="0" type="curve" smooth="yes"/>
      <point x="125" y="0" type="line"/>
      <point x="123" y="0" type="line" smooth="yes"/>
      <point x="44" y="1"/>
      <point x="5" y="51"/>
      <point x="5" y="152" type="curve" smooth="yes"/>
      <point x="5" y="647" type="line"/>
      <point x="9" y="647" type="line"/>
      <point x="9" y="152" type="line" smooth="yes"/>
      <point x="9" y="52"/>
      <point x="49" y="4"/>
      <point x="125" y="4" type="curve" smooth="yes"/>
      <point x="201" y="4"/>
      <point x="240" y="51"/>
      <point x="240" y="152" type="curve" smooth="yes"/>
      <point x="240" y="647" type="line"/>
    </contour>
  </outline>
</glyph>
<glyph name="Z" format="1">
  <advance width="376"/>
  <unicode hex="005A"/>
  <outline>
    <contour>
      <point x="313" y="4" type="line"/>
      <point x="313" y="0" type="line"/>
      <point x="8" y="0" type="line"/>
      <point x="8" y="5" type="line"/>
      <point x="307" y="643" type="line"/>
      <point x="7" y="643" type="line"/>
      <point x="7" y="647" type="line"/>
      <point x="312" y="647" type="line"/>
      <point x="312" y="642" type="line"/>
      <point x="13" y="4" type="line"/>
    </contour>
  </outline>
</glyph>
<glyph name="backslash" format="1">
  <advance width="299"/>
  <unicode hex="005C"/>
  <outline>
    <contour>
      <point x="248" y="0" type="line"/>
      <point x="10" y="647" type="line"/>
      <point x="15" y="647" type="line"/>
      <point x="253" y="0" type="line"/>
    </contour>
  </outline>
</glyph>
<glyph name="d" format="1">
  <advance width="303"/>
  <unicode hex="0064"/>
  <outline>
    <contour>
      <point x="237" y="577"/>
      <point x="248" y="535"/>
      <point x="248" y="479" type="curve" smooth="yes"/>
      <point x="248" y="168" type="line" smooth="yes"/>
      <point x="248" y="56"/>
      <point x="202" y="0"/>
      <point x="106" y="0" type="curve" smooth="yes"/>
      <point x="4" y="0" type="line"/>
      <point x="4" y="647" type="line"/>
      <point x="106" y="647" type="line" smooth="yes"/>
      <point x="154" y="647"/>
      <point x="190" y="633"/>
      <point x="214" y="604" type="curve" smooth="yes"/>
    </contour>
    <contour>
      <point x="243" y="479" type="line" smooth="yes"/>
      <point x="243" y="588"/>
      <point x="197" y="643"/>
      <point x="106" y="643" type="curve" smooth="yes"/>
      <point x="8" y="643" type="line"/>
      <point x="8" y="4" type="line"/>
      <point x="106" y="4" type="line" smooth="yes"/>
      <point x="197" y="4"/>
      <point x="243" y="59"/>
      <point x="243" y="168" type="curve" smooth="yes"/>
    </contour>
  </outline>
</glyph>
<glyph name="e" format="1">
  <advance width="259"/>
  <unicode hex="0065"/>
  <outline>
    <contour>
      <point x="8" y="643" type="line"/>
      <point x="8" y="326" type="line"/>
      <point x="219" y="326" type="line"/>
      <point x="219" y="322" type="line"/>
      <point x="8" y="322" type="line"/>
      <point x="8" y="4" type="line"/>
      <point x="219" y="4" type="line"/>
      <point x="219" y="0" type="line"/>
      <point x="4" y="0" type="line"/>
      <point x="4" y="322" type="line"/>
      <point x="4" y="326" type="line"/>
      <point x="4" y="647" type="line"/>
      <point x="219" y="647" type="line"/>
      <point x="219" y="643" type="line"/>
    </contour>
  </outline>
</glyph>
<glyph name="o" format="1">
  <advance width="332"/>
  <unicode hex="006F"/>
  <outline>
    <contour>
      <point x="47" y="0"/>
      <point x="3" y="55"/>
      <point x="3" y="165" type="curve" smooth="yes"/>
      <point x="3" y="483" type="line" smooth="yes"/>
      <point x="3" y="592"/>
      <point x="47" y="647"/>
      <point x="134" y="647" type="curve" smooth="yes"/>
      <point x="221" y="647"/>
      <point x="264" y="592"/>
      <point x="264" y="483" type="curve" smooth="yes"/>
      <point x="264" y="165" type="line" smooth="yes"/>
      <point x="264" y="55"/>
      <point x="221" y="0"/>
      <point x="134" y="0" type="curve" smooth="yes"/>
    </contour>
    <contour>
      <point x="51" y="643"/>
      <point x="8" y="590"/>
      <point x="8" y="483" type="curve" smooth="yes"/>
      <point x="8" y="165" type="line" smooth="yes"/>
      <point x="8" y="58"/>
      <point x="51" y="4"/>
      <point x="134" y="4" type="curve" smooth="yes"/>
      <point x="217" y="4"/>
      <point x="259" y="58"/>
      <point x="259" y="165" type="curve" smooth="yes"/>
      <point x="259" y="483" type="line" smooth="yes"/>
      <point x="259" y="590"/>
      <point x="217" y="643"/>
      <point x="134" y="643" type="curve" smooth="yes"/>
    </contour>
  </outline>
</glyph>
<glyph name="t" format="1">
  <advance width="360"/>
  <unicode hex="0074"/>
  <outline>
    <contour>
      <point x="333" y="643" type="line"/>
      <point x="171" y="643" type="line"/>
      <point x="171" y="0" type="line"/>
      <point x="167" y="0" type="line"/>
      <point x="167" y="643" type="line"/>
      <point x="5" y="643" type="line"/>
      <point x="5" y="647" type="line"/>
      <point x="167" y="647" type="line"/>
      <point x="171" y="647" type="line"/>
      <point x="333" y="647" type="line"/>
    </contour>
  </outline>
</glyph>
<glyph name="v" format="1">
  <advance width="380"/>
  <unicode hex="0076"/>
  <outline>
    <contour>
      <point x="335" y="648" type="line"/>
      <point x="173" y="0" type="line"/>
      <point x="170" y="0" type="line"/>
      <point x="7" y="648" type="line"/>
      <point x="12" y="648" type="line"/>
      <point x="171" y="13" type="line"/>
      <point x="330" y="648" type="line"/>
    </contour>
  </outline>
</glyph>
<glyph name="w" format="1">
  <advance width="639"/>
  <unicode hex="0077"/>
  <outline>
    <contour>
      <point x="579" y="648" type="line"/>
      <point x="436" y="0" type="line"/>
      <point x="432" y="0" type="line"/>
      <point x="292" y="635" type="line"/>
      <point x="152" y="0" type="line"/>
      <point x="149" y="0" type="line"/>
      <point x="6" y="648" type="line"/>
      <point x="11" y="648" type="line"/>
      <point x="150" y="14" type="line"/>
      <point x="290" y="648" type="line"/>
      <point x="294" y="648" type="line"/>
      <point x="434" y="14" type="line"/>
      <point x="574" y="648" type="line"/>
    </contour>
  </outline>
</glyph>
<glyph name="x" format="1">
  <advance width="364"/>
  <unicode hex="0078"/>
  <outline>
    <contour>
      <point x="161" y="324" type="line"/>
      <point x="8" y="647" type="line"/>
      <point x="13" y="647" type="line"/>
      <point x="164" y="329" type="line"/>
      <point x="313" y="647" type="line"/>
      <point x="318" y="647" type="line"/>
      <point x="166" y="324" type="line"/>
      <point x="319" y="0" type="line"/>
      <point x="314" y="0" type="line"/>
      <point x="164" y="318" type="line"/>
      <point x="14" y="0" type="line"/>
      <point x="8" y="0" type="line"/>
    </contour>
  </outline>
</glyph>
<glyph name="bar" format="1">
  <advance width="89"/>
  <unicode hex="007C"/>
  <outline>
    <contour>
      <point x="13" y="0" type="line"/>
      <point x="13" y="647" type="line"/>
      <point x="18" y="647" type="line"/>
      <point x="18" y="0" type="line"/>
      <point x="18" y="0" type="line"/>
    </contour>
  </outline>
</glyph>
<glyph name="dotlessi" format="1">
  <advance width="101"/>
  <unicode hex="0131"/>
  <outline>
    <contour>
      <point x="24" y="0" type="line"/>
      <point x="24" y="647" type="line"/>
      <point x="29" y="647" type="line"/>
      <point x="29" y="0" type="line"/>
      <point x="29" y="0" type="line"/>
    </contour>
  </outline>
</glyph>
<glyph name="endash" format="1">
  <advance width="233"/>
  <unicode hex="2013"/>
  <outline>
    <contour>
      <point x="10" y="321" type="line"/>
      <point x="10" y="326" type="line"/>
      <point x="228" y="326" type="line"/>
      <point x="228" y="321" type="line"/>
      <point x="228" y="321" type="line"/>
    </contour>
  </outline>
</glyph>
<glyph name="quoteright" format="1">
  <advance width="49"/>
  <unicode hex="2019"/>
  <outline>
    <contour>
      <point x="1" y="640" type="line"/>
      <point x="6" y="640" type="line"/>
      <point x="6" y="578" type="line"/>
      <point x="1" y="578" type="line"/>
    </contour>
  </outline>
</glyph>
<glyph name="quotedblleft" format="1">
  <advance width="125"/>
  <unicode hex="201C"/>
  <outline>
    <contour>
      <point x="1" y="578" type="line"/>
      <point x="1" y="640" type="line"/>
      <point x="6" y="640" type="line"/>
      <point x="6" y="578" type="line"/>
    </contour>
    <contour>
      <point x="61" y="640" type="line"/>
      <point x="66" y="640" type="line"/>
      <point x="66" y="578" type="line"/>
      <point x="61" y="578" type="line"/>
    </contour>
  </outline>
</glyph>
